<?xml version="1.0" encoding="UTF-8"?>
<svg width="800px" height="800px" viewBox="0 0 800 800" version="1.1" xmlns="http://www.w3.org/2000/svg" xmlns:xlink="http://www.w3.org/1999/xlink">
    <!-- Generator: Sketch 49.1 (51147) - http://www.bohemiancoding.com/sketch -->
    <title>bond-black</title>
    <desc>Created with Sketch.</desc>
    <defs></defs>
    <g id="Page-1" stroke="none" stroke-width="1" fill="none" fill-rule="evenodd">
        <g id="bond-black">
            <rect id="Rectangle-Copy" fill="#FFFFFF" x="0" y="0" width="800" height="800"></rect>
            <g id="BOND_logo-Copy" transform="translate(10.000000, 0.000000)" fill="#000000">
                <polyline id="Fill-1" points="0 791.086142 43.9830212 791.086142 43.9830212 515.858177 343.721348 800 343.721348 424.938826 299.738327 424.938826 299.738327 699.852185 0 415.849189 0 791.086142"></polyline>
                <path d="M591.213983,43.7143571 C669.940574,43.7143571 733.988514,108.267665 733.988514,187.613483 C733.988514,266.9603 669.940574,331.513608 591.213983,331.513608 C512.486392,331.513608 448.439451,266.9603 448.439451,187.613483 C448.439451,108.267665 512.486392,43.7143571 591.213983,43.7143571 M591.213983,0.702122347 C487.98402,0.702122347 404.302622,84.3845194 404.302622,187.613483 C404.302622,290.842447 487.98402,374.524844 591.213983,374.524844 C694.443945,374.524844 778.125343,290.842447 778.125343,187.613483 C778.125343,84.3845194 694.443945,0.702122347 591.213983,0.702122347" id="Fill-2"></path>
                <path d="M672.266667,440.149813 C637.425218,424.880899 608.14382,424.828964 577.140574,424.828964 L428.309613,424.828964 L428.309613,791.086142 L576.987765,791.086142 C608.400499,791.086142 641.035705,791.033208 676.016979,775.205993 C739.954057,746.282147 778.126342,682.798502 778.126342,605.387266 C778.126342,532.080899 737.565044,468.762047 672.266667,440.149813 M657.732834,736.265668 C631.011236,748.288639 602.795506,748.288639 573.278402,748.288639 L472.286642,748.288639 L472.286642,467.607491 L574.420974,467.607491 C604.188764,467.607491 628.415481,467.892135 655.001248,479.544569 C705.166542,501.527091 734.621723,548.572285 734.621723,605.387266 C734.621723,666.43196 706.909363,714.135331 657.732834,736.265668" id="Fill-3"></path>
                <path d="M317.127591,187.995006 C340.566292,173.134582 356.546317,143.910112 356.546317,110.351061 C356.507366,67.4636704 333.442197,31.0731586 296.484395,15.1660424 C275.376779,6.08938826 244.126841,4.75605493 228.404494,4.75205993 L0.000998751561,4.75205993 L0.000998751561,370.987266 L228.404494,370.987266 C244.126841,370.982272 275.376779,369.648939 296.484395,360.572285 C333.442197,344.667166 356.507366,308.277653 356.546317,265.391261 C356.546317,228.416479 339.80824,197.222472 317.127591,187.995006 M312.566292,265.38427 C312.557303,290.582772 299.050187,311.402747 276.551311,321.084644 C266.438951,325.435206 248.072909,328.088889 227.299875,328.088889 L43.9820225,328.088889 L43.9820225,47.650437 L227.299875,47.650437 C248.072909,47.650437 266.438951,50.3051186 276.551311,54.6536829 C299.050187,64.337578 312.557303,85.1555556 312.566292,110.354057 C312.566292,162.345069 273.150562,182.460924 237.929588,188.827965 C273.030712,195.667416 312.566292,213.393258 312.566292,265.38427" id="Fill-4"></path>
            </g>
        </g>
    </g>
</svg>