<?xml version="1.0" encoding="UTF-8" standalone="no"?>
<svg
   xmlns:dc="http://purl.org/dc/elements/1.1/"
   xmlns:cc="http://creativecommons.org/ns#"
   xmlns:rdf="http://www.w3.org/1999/02/22-rdf-syntax-ns#"
   xmlns:svg="http://www.w3.org/2000/svg"
   xmlns="http://www.w3.org/2000/svg"
   xmlns:xlink="http://www.w3.org/1999/xlink"
   height="810"
   width="810"
   xml:space="preserve"
   enable-background="new 0 0 2129.1121 1693.4047"
   viewBox="0 0 810.00002 810.00002"
   y="0px"
   x="0px"
   id="Layer_1"
   version="1.1"><title
   id="title4850">Constipated Emoji</title><metadata
   id="metadata37"><rdf:RDF><cc:Work
       rdf:about=""><dc:format>image/svg+xml</dc:format><dc:type
         rdf:resource="http://purl.org/dc/dcmitype/StillImage" /><dc:title>Constipated Emoji</dc:title><cc:license
         rdf:resource="http://creativecommons.org/publicdomain/zero/1.0/" /><dc:subject><rdf:Bag><rdf:li>smiley</rdf:li><rdf:li>emoji</rdf:li><rdf:li>emoticon</rdf:li><rdf:li>constipated</rdf:li><rdf:li>pain</rdf:li></rdf:Bag></dc:subject><dc:description>emoji with constipation</dc:description><dc:creator><cc:Agent><dc:title>Arvin61r58</dc:title></cc:Agent></dc:creator><dc:publisher><cc:Agent><dc:title>Openclipart.org</dc:title></cc:Agent></dc:publisher><dc:identifier>https://openclipart.org/</dc:identifier><dc:source>https://openclipart.org/user-detail/Arvin61r58</dc:source><dc:contributor><cc:Agent><dc:title>GDJ (https://openclipart.org/detail/244751/in-pain-smiley-face)
Pixabay (https://pixabay.com/)</dc:title></cc:Agent></dc:contributor></cc:Work><cc:License
       rdf:about="http://creativecommons.org/publicdomain/zero/1.0/"><cc:permits
         rdf:resource="http://creativecommons.org/ns#Reproduction" /><cc:permits
         rdf:resource="http://creativecommons.org/ns#Distribution" /><cc:permits
         rdf:resource="http://creativecommons.org/ns#DerivativeWorks" /></cc:License></rdf:RDF></metadata><defs
   id="defs35"><linearGradient
     xlink:href="#linearGradient4820"
     id="linearGradient4887"
     x1="387.86484"
     y1="378.14856"
     x2="1540.7014"
     y2="1530.9852"
     gradientUnits="userSpaceOnUse"
     gradientTransform="matrix(0.486618,0,0,0.486618,-66.5219,-61.87796)" /><linearGradient
     id="linearGradient4820"><stop
       id="stop4790"
       offset="0"
       stop-color="#f1e033"
       style="stop-color:#f3e551;stop-opacity:1" /><stop
       id="stop4792"
       offset="0.071429"
       stop-color="#f3e135" /><stop
       id="stop4794"
       offset="0.142857"
       stop-color="#f6e32f" /><stop
       id="stop4796"
       offset="0.214286"
       stop-color="#f7e631" /><stop
       id="stop4798"
       offset="0.285714"
       stop-color="#faea2c" /><stop
       id="stop4800"
       offset="0.357143"
       stop-color="#f9e829" /><stop
       id="stop4802"
       offset="0.428571"
       stop-color="#f2e024" /><stop
       id="stop4804"
       offset="0.5"
       stop-color="#ebda1e" /><stop
       id="stop4806"
       offset="0.571429"
       stop-color="#e5d41b" /><stop
       id="stop4808"
       offset="0.642857"
       stop-color="#e3d21a" /><stop
       id="stop4810"
       offset="0.714286"
       stop-color="#dfcf17" /><stop
       id="stop4812"
       offset="0.785714"
       stop-color="#d8c914" /><stop
       id="stop4814"
       offset="0.857143"
       stop-color="#d4c312" /><stop
       id="stop4816"
       offset="0.928571"
       stop-color="#d1c10f" /><stop
       id="stop4818"
       offset="1"
       stop-color="#cfbb0e"
       style="stop-color:#bbaa0c;stop-opacity:1" /></linearGradient></defs>

<circle
   style="opacity:1;fill:url(#linearGradient4887);fill-opacity:1;stroke:none;stroke-width:0.5;stroke-linecap:round;stroke-linejoin:round;stroke-miterlimit:4;stroke-dasharray:none;stroke-opacity:1"
   id="path4879"
   cx="405"
   cy="405"
   r="400" /><g
   transform="translate(-657.79745,-429.77075)"
   id="g4712"><path
     id="path2"
     d="m 829.88977,613.52036 c 13.71582,-21.8286 37.70693,-41.8435 63.86806,-45.0032 13.97276,-1.3199 27.23162,4.3953 39.40318,10.658 24.3474,12.8271 43.35937,31.8685 65.40658,47.9187 3.22041,2.3444 6.89771,4.7408 10.45961,5.9955 11.8193,4.1311 22.9415,-5.6888 32.4911,-11.731 -6.666,10.3202 -16.2126,23.4077 -29.6528,24.05 -9.4692,0.4525 -19.42038,-4.4241 -27.33163,-8.8194 -27.27704,-15.1545 -50.41068,-35.4413 -79.14693,-48.2243 -24.06482,-9.1622 -55.35956,12.0579 -75.49717,25.1557 z"
     style="stroke-width:0.34797063" /><path
     id="path4"
     d="m 1155.0003,627.83336 c 6.2805,9.0442 15.0526,20.1645 25.9829,23.1952 8.7274,2.4198 15.9966,-2.7576 22.7524,-7.5202 11.2801,-7.6773 22.2386,-15.8034 33.3948,-23.6565 19.5375,-13.753 47.0192,-33.9333 72.52,-29.6928 24.2091,3.8518 44.3198,24.4933 57.66,43.8085 -19.5545,-11.27 -47.7091,-33.9175 -71.4901,-23.7685 0.076,-0.023 0.1515,-0.048 0.2265,-0.075 -32.3626,14.1787 -59.3024,37.9828 -91.5566,52.4893 -25.7027,11.5599 -45.5777,-11.3264 -49.4899,-34.7804 z"
     style="stroke-width:0.34797063" /><path
     style="stroke:#ffffff;stroke-width:0.34797063;stroke-miterlimit:10"
     id="path14"
     d="M 923.94689,759.71776"
     stroke-miterlimit="10" /><path
     style="stroke:#ffffff;stroke-width:0.34797063;stroke-miterlimit:10"
     id="path16"
     d="M 897.87672,694.03116"
     stroke-miterlimit="10" /><path
     id="path18"
     d="M 939.02672,724.44636"
     style="stroke-width:0.34797063" /><path
     id="path20"
     d="m 895.32081,695.82026 c 0,0 111.61829,-34.6566 128.91829,61.0568 1.0607,5.8685 -2.8376,11.5224 -8.7272,12.459 -26.45532,4.207 -63.49022,-0.2375 -102.81097,-6.5511 17.09134,-10.7397 41.58743,-13.0856 69.77608,-11.246 -11.19515,-12.2049 -30.28054,-20.8737 -55.97421,-26.5813 19.31178,-3.9625 38.92483,-3.9913 59.04129,2.5559 -13.00077,-19.4226 -44.20946,-29.3986 -90.22328,-31.6933 z"
     style="stroke-width:0.34797063" /><path
     id="path22"
     d="m 1113.2005,783.14506 c 5.3148,-59.7178 66.1846,-94.4711 128.7004,-70.2002 -35.1158,2.0302 -65.0605,11.094 -86.9006,31.182 20.9338,-4.5973 39.6506,-5.94 53.9295,-0.7668 -22.0892,5.0024 -42.1002,13.8361 -59.2969,27.8593 32.42,-0.4118 60.3598,0.7675 70.0316,8.4345 -33.1353,7.7603 -66.2085,11.654 -99.2151,11.3828 -4.2432,-0.035 -7.6251,-3.6649 -7.2489,-7.8916 z"
     style="stroke-width:0.34797063" /><path
     id="path28"
     d="m 1312.4744,974.34196 c -3.4556,-10.6122 -10.561,-19.7725 -20.0076,-25.7942 -16.2146,-10.3565 -31.6932,-15.6012 -45.996,-15.6012 -16.3066,0 -31.4682,6.7681 -45.0758,20.1201 -2.4128,2.3616 -5.6332,3.936 -9.0581,4.4166 -1.7585,0.2453 -3.6806,0.368 -5.7049,0.368 -10.7041,0 -23.8006,-3.4351 -36.3448,-7.1565 -4.4882,-1.3291 -9.3751,-1.1859 -13.8326,0.4089 -13.0861,4.6825 -24.5672,7.177 -34.2388,7.4122 -1.3904,0 -2.6787,-0.7157 -3.3737,-1.871 -5.3369,-8.9047 -11.9923,-13.4133 -19.7521,-13.4133 -8.2199,0 -16.9304,5.1117 -26.6019,15.6421 -6.2158,2.4025 -13.8325,3.1795 -23.6472,2.4332 -6.3385,-6.2466 -14.8037,-11.8798 -25.8043,-17.1859 -4.76423,-2.3003 -10.28485,-2.9546 -15.39671,-1.8197 -7.44282,1.6561 -16.08167,4.4778 -26.36671,8.6082 -5.21413,2.0447 -12.62622,2.8831 -22.12387,2.4843 -2.73999,-0.1124 -5.36741,-1.4006 -7.19736,-3.5272 -12.30925,-14.2619 -24.65946,-24.2912 -36.71309,-29.8222 -4.6619,-2.1367 -9.79405,-3.2613 -14.8548,-3.2613 -5.36737,0 -10.69397,1.2678 -15.40692,3.6805 -23.40196,11.9821 -35.66006,40.2708 -37.46965,86.46104 v 0.2863 c 0.5112,32.736 5.44929,56.9148 15.09006,73.9167 10.59177,18.658 26.78591,28.1251 48.14302,28.1251 10.52013,0 22.50215,-2.3616 35.59865,-6.9929 l 0.42933,-0.1534 0.38851,-0.225 c 0.13292,-0.082 13.64849,-7.6268 29.29064,-7.6268 13.04531,0 23.81083,5.2345 31.98967,15.5604 1.11423,1.4006 3.18967,3.0773 6.78838,3.0773 3.75206,-0.01 8.00515,-1.8199 13.39305,-4.1099 4.7027,-2.0039 10.0293,-4.2632 15.1411,-5.2447 0.6952,-0.041 1.4108,-0.061 2.1059,-0.061 11.2767,0 21.1017,5.7968 30.5993,11.3993 8.2606,4.8767 16.0613,9.4773 24.5162,10.152 0.4704,0.031 0.9509,0.051 1.4517,0.051 8.5878,0 21.398,-5.9705 29.6076,-11.8696 1.6869,-1.2064 5.0096,-2.1571 7.5757,-2.1571 0.4089,0 0.777,0.031 1.0939,0.071 l 22.8089,3.425 c 5.1834,0.777 12.892,-0.7054 17.4415,-3.2613 6.5635,-3.6907 12.1557,-4.9176 16.6439,-5.9093 2.2084,-0.4805 4.294,-0.9405 6.1852,-1.6051 1.0224,-0.3681 2.0448,-0.4089 2.9139,-0.1124 16.6337,5.5616 32.879,8.2709 49.6561,8.2709 1.4517,0 2.9135,-0.021 4.396,-0.061 6.4715,-0.184 12.9022,-2.515 18.1265,-6.5738 24.6184,-19.159 41.7326,-39.4528 50.8318,-60.3192 9.8044,-22.4307 10.7247,-46.20054 2.7604,-70.63494 z M 919.6632,1093.7332 c -10.7041,3.5066 -20.42675,5.2958 -28.92259,5.2958 -33.97303,0 -51.30204,-28.8204 -52.92759,-88.0968 27.07208,7.2281 55.4937,13.2907 84.57987,18.106 z m 3.15912,-74.8982 c -28.74878,-4.8255 -57.16016,-10.9597 -84.72299,-18.4228 2.49457,-37.59224 13.09643,-61.40304 31.53982,-70.84964 6.39998,-3.2716 14.51754,-3.3533 21.33669,-0.2249 10.71433,4.9175 21.89894,14.0676 33.2267,27.205 0.37828,0.4396 0.77702,0.8587 1.18592,1.2472 z m 92.21688,76.4624 c -3.6805,1.2064 -7.1872,2.699 -10.4281,4.0792 -3.2511,1.3904 -6.90094,2.9342 -8.84342,3.2307 -10.01915,-12.1559 -23.58587,-18.5764 -39.31998,-18.5764 -10.53033,0 -20.03828,2.8115 -26.36668,5.2857 l 2.47414,-58.6529 c 27.81841,4.3144 56.17864,7.4939 84.49804,9.4466 z m 2.3821,-65.3084 c -28.08426,-1.922 -56.39341,-5.0914 -84.43674,-9.4977 l 2.41276,-57.30334 c 1.09391,0.2351 2.19806,0.3782 3.32266,0.4191 11.09261,0.4601 19.62931,-0.5725 26.32579,-3.1897 9.80446,-3.9463 17.92199,-6.6045 24.81267,-8.138 2.88308,-0.6441 6.0217,-0.2658 8.73097,1.0428 8.72079,4.2122 15.81589,8.731 21.13219,13.4543 z m 12.3603,-58.37684 c 2.0141,0.1227 3.9361,0.184 5.8172,0.184 8.5265,0 15.6933,-1.2779 21.899,-3.9258 l 1.0428,-0.4396 0.7463,-0.8486 c 7.7291,-8.5878 14.5686,-13.1271 19.8031,-13.1271 1.462,0 5.9195,0 10.9904,8.4447 2.5252,4.2224 7.177,6.8396 12.1354,6.8396 l 0.3476,-0.01 c 3.0569,-0.072 6.216,-0.3374 9.5182,-0.7974 l 0.225,63.85664 c -27.5936,0.9099 -55.9845,0.5317 -84.6719,-1.145 z m 76.2988,133.29544 c -7.6371,5.49 -18.2492,9.9475 -23.6473,9.9475 -0.2249,0 -0.4293,-0.01 -0.6338,-0.021 -6.1035,-0.4907 -12.9226,-4.5086 -20.1405,-8.7616 -10.1827,-6.0115 -21.7251,-12.8204 -35.7928,-12.8204 -0.1738,0 -0.3374,0 -0.5112,0.01 l 1.9118,-52.488 c 18.9444,1.1144 37.8375,1.6869 56.5161,1.6869 0.6134,0 1.2268,0 1.8402,0 9.0173,-0.02 17.9322,-0.1636 26.7245,-0.4396 l 0.2147,59.8695 c -2.4536,0.7258 -4.7335,1.7686 -6.4817,3.0159 z m 16.2146,-138.89794 c 5.5105,-1.2882 11.3584,-3.0467 17.605,-5.2754 2.423,-0.869 5.0607,-0.9508 7.4735,-0.2352 13.2907,3.9361 27.2459,7.5757 39.2586,7.5757 2.5047,0 4.8971,-0.1534 7.1259,-0.4702 1.8197,-0.2556 3.6089,-0.6952 5.3367,-1.3189 l 6.676,56.88414 c -26.3667,4.1713 -54.318,6.9112 -83.2406,8.2096 z m 67.6495,127.94844 c -3.0262,-1.0122 -6.3999,-0.9508 -9.559,0.1738 -1.2984,0.4601 -2.9955,0.8281 -4.9687,1.2575 -4.8868,1.0735 -11.5731,2.5457 -19.4657,6.9827 -2.1981,1.237 -6.1955,2.1777 -9.2933,2.1777 -0.6031,0 -1.1552,-0.041 -1.6255,-0.1125 l -22.2568,-3.3431 -0.2045,-59.4502 c 29.6791,-1.278 57.9269,-4.0281 84.4061,-8.2096 l 7.8211,66.617 c -8.2608,-1.2678 -16.5009,-3.2921 -24.8537,-6.0933 z m 18.7399,-133.71454 c 11.7469,-11.4913 24.1175,-17.0734 37.7864,-17.0734 12.3195,0 25.9475,4.713 40.4957,13.9961 7.453,4.7539 13.0555,11.982 15.7852,20.3449 2.1061,6.4716 3.5373,12.8409 4.2735,19.1386 -26.7245,10.67354 -57.5487,18.95464 -91.1537,24.83314 z m 43.9206,136.98604 c -3.5169,2.7297 -7.821,4.3042 -12.1354,4.4166 -1.3802,0.041 -2.7604,0.061 -4.1201,0.061 -3.7214,0 -7.4223,-0.1432 -11.1029,-0.4396 l -8.1584,-69.5001 c 33.4209,-5.8377 63.8464,-13.9858 90.5505,-24.3628 -0.2249,31.734 -18.423,61.3415 -55.0337,89.8245 z"
     style="stroke-width:0.34797063" /><path
     style="opacity:1;fill:#ffffff;fill-opacity:1;stroke:none;stroke-width:0.17398532;stroke-linecap:round;stroke-linejoin:round;stroke-miterlimit:4;stroke-dasharray:none;stroke-opacity:1"
     d="m 919.4399,1019.0415 c -1.34695,-0.287 -10.98994,-2.1815 -21.42885,-4.21 -10.43891,-2.0285 -28.28581,-5.9278 -39.65978,-8.6653 l -20.67995,-4.9772 0.78194,-9.95684 c 1.77028,-22.542 9.43059,-43.2312 19.96786,-53.9297 16.29585,-16.5453 33.2304,-13.8317 57.07716,9.1461 l 10.99555,10.5949 -0.74671,10.2792 c -0.41069,5.6535 -1.10394,19.7844 -1.54056,31.4019 -0.43663,11.61754 -1.13671,21.05884 -1.55576,20.98074 -0.41904,-0.078 -1.86394,-0.3769 -3.2109,-0.6638 z"
     id="path4549" /><path
     style="opacity:1;fill:#ffffff;fill-opacity:1;stroke:none;stroke-width:0.17398532;stroke-linecap:round;stroke-linejoin:round;stroke-miterlimit:4;stroke-dasharray:none;stroke-opacity:1"
     d="m 1009.4411,1030.0617 c -2.3572,-0.2278 -13.37776,-1.2898 -24.49015,-2.36 -20.19066,-1.9444 -51.35287,-6.1453 -52.25142,-7.0439 -0.26171,-0.2617 0.0887,-12.2605 0.77861,-26.66394 0.68995,-14.4035 1.25875,-27.2901 1.264,-28.6371 0.009,-2.2463 0.89631,-2.4656 10.72124,-2.6498 9.17073,-0.1719 13.11084,-1.0086 27.3889,-5.8164 9.17247,-3.0886 18.14238,-5.6156 19.93314,-5.6156 3.79894,0 14.96778,5.4392 22.60128,11.0067 l 5.3334,3.8899 -0.7182,14.2867 c -0.395,7.8576 -1.0615,22.41434 -1.4811,32.34814 -0.6654,15.7551 -1.0202,18.0364 -2.7784,17.8655 -1.1086,-0.1078 -3.9442,-0.3824 -6.3013,-0.6102 z"
     id="path4551" /><path
     style="opacity:1;fill:#ffffff;fill-opacity:1;stroke:none;stroke-width:0.17398532;stroke-linecap:round;stroke-linejoin:round;stroke-miterlimit:4;stroke-dasharray:none;stroke-opacity:1"
     d="m 1048.6253,1032.0388 c -11.1124,-0.4577 -20.5856,-0.9084 -21.0515,-1.0015 -0.466,-0.093 -0.6061,-3.8889 -0.3114,-8.4348 0.2947,-4.546 0.8728,-18.0462 1.2849,-30.00044 l 0.7491,-21.735 h 8.2453 c 12.0116,0 18.7243,-2.438 26.2127,-9.5202 11.4412,-10.8206 19.0549,-11.0778 26.3708,-0.8906 4.4532,6.201 10.0261,8.5744 17.2623,7.3519 l 4.8332,-0.8166 0.3455,32.3839 0.3456,32.38384 -12.7417,0.7788 c -13.7728,0.8418 -20.5823,0.7758 -51.5448,-0.4993 z"
     id="path4553" /><path
     style="opacity:1;fill:#ffffff;fill-opacity:1;stroke:none;stroke-width:0.17398532;stroke-linecap:round;stroke-linejoin:round;stroke-miterlimit:4;stroke-dasharray:none;stroke-opacity:1"
     d="m 1122.107,998.80866 0.012,-33.4519 9.0749,-2.7551 c 11.5179,-3.4969 13.9468,-3.457 27.8552,0.4579 8.8539,2.4922 14.7117,3.2878 26.1091,3.5463 l 14.694,0.3332 3.2439,27.9848 c 3.3219,28.65844 3.2708,29.73964 -1.4071,29.81264 -1.0102,0.016 -7.8981,0.8213 -15.3063,1.7901 -12.3151,1.6106 -27.0647,2.967 -54.1844,4.9831 l -10.1021,0.751 z"
     id="path4555" /><path
     style="opacity:1;fill:#ffffff;fill-opacity:1;stroke:none;stroke-width:0.17398532;stroke-linecap:round;stroke-linejoin:round;stroke-miterlimit:4;stroke-dasharray:none;stroke-opacity:1"
     d="m 1215.1458,1021.3779 c -0.01,-0.5051 -1.6454,-14.4185 -3.6416,-30.91874 l -3.6294,-30.0004 5.1722,-4.7688 c 12.0093,-11.0725 30.645,-15.5506 47.1235,-11.3238 12.3655,3.1719 25.8061,10.3911 33.5389,18.0144 6.048,5.9623 7.3182,8.0873 10.1022,16.9001 1.7514,5.5442 3.1844,11.9284 3.1844,14.1872 0,4.0327 -0.1824,4.1727 -10.1232,7.76974 -19.9863,7.2319 -40.6373,12.8735 -66.1238,18.0642 -16.865,3.4348 -15.5874,3.2648 -15.6032,2.0761 z"
     id="path4557" /><path
     style="opacity:1;fill:#ffffff;fill-opacity:1;stroke:none;stroke-width:0.17398532;stroke-linecap:round;stroke-linejoin:round;stroke-miterlimit:4;stroke-dasharray:none;stroke-opacity:1"
     d="m 1224.4513,1099.2505 c -0.8906,-4.2077 -8.1486,-67.4983 -7.7744,-67.7941 0.1748,-0.1383 7.5718,-1.717 16.4378,-3.5084 19.9581,-4.0325 48.1262,-11.6983 63.6979,-17.335 l 11.7616,-4.2576 -0.7842,8.4378 c -2.2296,23.9895 -14.3351,45.8099 -37.8585,68.2408 -17.8375,17.0089 -19.9048,18.1612 -33.4899,18.6655 -11.1037,0.4122 -11.3973,0.3522 -11.9903,-2.449 z"
     id="path4559" /><path
     style="opacity:1;fill:#ffffff;fill-opacity:1;stroke:none;stroke-width:0.17398532;stroke-linecap:round;stroke-linejoin:round;stroke-miterlimit:4;stroke-dasharray:none;stroke-opacity:1"
     d="m 1133.4222,1103.4873 -11.3266,-1.8584 v -30.2245 -30.2245 l 22.1516,-1.5133 c 12.1834,-0.8322 31.224,-2.6631 42.3125,-4.0684 11.0885,-1.4055 20.3644,-2.3519 20.6131,-2.1032 0.7636,0.7637 8.2919,66.0467 7.6861,66.6524 -0.7414,0.7414 -11.781,-1.5452 -21.3518,-4.4226 l -7.569,-2.2755 -11.1098,2.9731 c -6.1103,1.6353 -13.1738,4.0192 -15.6965,5.2978 -6.7399,3.4157 -13.0276,3.8479 -25.7096,1.7671 z"
     id="path4561" /><path
     style="opacity:1;fill:#ffffff;fill-opacity:1;stroke:none;stroke-width:0.17398532;stroke-linecap:round;stroke-linejoin:round;stroke-miterlimit:4;stroke-dasharray:none;stroke-opacity:1"
     d="m 1059.0335,1105.5673 c -14.5499,-7.4382 -21.3253,-10.2271 -26.3268,-10.8372 l -6.7348,-0.8214 0.2726,-26.1806 c 0.1499,-14.3994 0.4356,-26.3438 0.6349,-26.5431 0.1993,-0.1993 19.7758,-0.036 43.5035,0.3631 l 43.1411,0.7254 -0.04,30.114 -0.04,30.1139 -3.9397,1.9622 c -2.1669,1.0792 -7.4776,3.7865 -11.8015,6.0162 -13.5661,6.9956 -15.9741,6.6897 -38.6695,-4.9125 z"
     id="path4563" /><path
     style="opacity:1;fill:#ffffff;fill-opacity:1;stroke:none;stroke-width:0.17398532;stroke-linecap:round;stroke-linejoin:round;stroke-miterlimit:4;stroke-dasharray:none;stroke-opacity:1"
     d="m 991.00756,1098.7497 c -2.32091,-2.4002 -8.32345,-6.3952 -13.33896,-8.8777 -8.68299,-4.2978 -9.70781,-4.5136 -21.42885,-4.5136 -8.82238,0 -14.15345,0.6424 -18.81772,2.2676 -3.57939,1.2472 -6.83057,1.945 -7.22484,1.5508 -0.75986,-0.7599 1.41576,-58.0603 2.23299,-58.8112 0.2636,-0.2421 7.32679,0.5636 15.69597,1.7906 8.36918,1.227 27.37963,3.4382 42.24545,4.9139 14.8658,1.4757 27.1193,2.7502 27.2299,2.8323 0.6668,0.4948 -2.2574,55.3267 -2.9841,55.9545 -1.1106,0.9595 -17.09401,7.2568 -18.41857,7.2568 -0.53428,0 -2.87035,-1.9638 -5.19127,-4.364 z"
     id="path4565" /><path
     style="opacity:1;fill:#ffffff;fill-opacity:1;stroke:#000000;stroke-width:2.08782387;stroke-linecap:round;stroke-linejoin:round;stroke-miterlimit:4;stroke-dasharray:none;stroke-opacity:1"
     d="m 876.5822,1097.8105 c -22.92825,-7.6409 -35.38639,-31.2358 -38.51102,-72.9372 -0.5856,-7.8154 -0.97662,-14.2994 -0.86894,-14.409 0.10768,-0.1095 7.91017,1.6771 17.33886,3.9703 9.42869,2.2932 28.40227,6.3868 42.16351,9.097 13.76124,2.7101 25.28661,5.1936 25.61193,5.519 0.74992,0.7499 -1.81926,64.2301 -2.63244,65.0433 -3.78612,3.7861 -34.85455,6.4651 -43.1019,3.7166 z"
     id="path4567" /><path
     style="opacity:1;fill:#000000;fill-opacity:1;stroke:#000000;stroke-width:11.13506031;stroke-linecap:round;stroke-linejoin:round;stroke-miterlimit:4;stroke-dasharray:none;stroke-opacity:1"
     d="m 1046.3804,878.78776 c -24.3474,-2.5417 -38.9846,-18.2499 -32.5953,-34.9801 10.8529,-28.4179 68.0868,-41.0137 92.2769,-20.3079 6.5798,5.6321 8.6865,9.8903 8.6865,17.5576 0,22.9812 -33.35,41.3861 -68.3681,37.7304 z"
     id="path4571" /></g><g
   transform="translate(-657.79745,-393.77075)"
   id="g4724"><path
     style="fill:#ffffff;fill-opacity:0.58823529;fill-rule:evenodd;stroke:#000000;stroke-width:2"
     id="path4153"
     d="m 731.95348,713.22915 c -6.86388,9.21486 -25.5222,1.72789 -10.58439,-16.89287 8.84894,-11.03067 39.35404,-14.16828 39.35404,-14.16828 -21.29797,3.17798 -24.87143,25.82774 -28.76965,31.06115 z" /><path
     d="m 739.95348,739.22915 c -6.86388,9.21486 -25.5222,1.72789 -10.58439,-16.89287 8.84894,-11.03067 39.35404,-14.16828 39.35404,-14.16828 -21.29797,3.17798 -24.87143,25.82774 -28.76965,31.06115 z"
     id="path4720"
     style="fill:#ffffff;fill-opacity:0.58823529;fill-rule:evenodd;stroke:#000000;stroke-width:2" /></g><g
   transform="matrix(-1,0,0,1,1467.7975,-373.77075)"
   id="g4730"><path
     d="m 731.95348,713.22915 c -6.86388,9.21486 -25.5222,1.72789 -10.58439,-16.89287 8.84894,-11.03067 39.35404,-14.16828 39.35404,-14.16828 -21.29797,3.17798 -24.87143,25.82774 -28.76965,31.06115 z"
     id="path4726"
     style="fill:#ffffff;fill-opacity:0.58823529;fill-rule:evenodd;stroke:#000000;stroke-width:2" /><path
     style="fill:#ffffff;fill-opacity:0.58823529;fill-rule:evenodd;stroke:#000000;stroke-width:2"
     id="path4728"
     d="m 739.95348,739.22915 c -6.86388,9.21486 -25.5222,1.72789 -10.58439,-16.89287 8.84894,-11.03067 39.35404,-14.16828 39.35404,-14.16828 -21.29797,3.17798 -24.87143,25.82774 -28.76965,31.06115 z" /></g></svg>